<?xml version="1.0" standalone="no"?>
<!DOCTYPE svg PUBLIC "-//W3C//DTD SVG 20010904//EN"
 "http://www.w3.org/TR/2001/REC-SVG-20010904/DTD/svg10.dtd">
<svg version="1.0" xmlns="http://www.w3.org/2000/svg"
 width="512.000000pt" height="512.000000pt" viewBox="0 0 512.000000 512.000000"
 preserveAspectRatio="xMidYMid meet">

<g transform="translate(0.000000,512.000000) scale(0.100000,-0.100000)"
fill="#fff" stroke="none">
<path d="M948 5099 c-23 -12 -46 -35 -58 -59 -20 -39 -20 -55 -20 -2105 0
-2051 0 -2066 20 -2105 13 -26 34 -47 60 -60 39 -20 57 -20 1120 -20 l1080 0
0 2185 0 2185 -1082 0 c-1059 -1 -1084 -1 -1120 -21z"/>
<path d="M3450 2935 l0 -2187 183 4 c154 4 191 8 241 27 167 60 291 185 348
349 l23 67 0 1740 0 1740 -23 67 c-57 164 -181 289 -348 349 -50 19 -87 23
-241 27 l-183 4 0 -2187z"/>
<path d="M1110 288 c0 -143 2 -167 21 -204 25 -53 91 -90 144 -81 19 3 111 40
204 81 l171 76 180 -80 c99 -44 194 -80 211 -80 49 0 106 36 129 80 18 35 20
59 20 205 l0 165 -540 0 -540 0 0 -162z"/>
</g>
</svg>
